<svg width="123" height="30" viewBox="0 0 123 30" fill="none" xmlns="http://www.w3.org/2000/svg">
<path d="M36.376 24V10.368H31.576V6.816H44.92V10.368H40.12V24H36.376ZM44.9187 12.24H48.2787V13.728H48.5187C48.8387 13.216 49.2947 12.784 49.8867 12.432C50.4787 12.08 51.1347 11.904 51.8547 11.904C52.2867 11.904 52.6627 11.96 52.9827 12.072C53.3027 12.168 53.5667 12.28 53.7747 12.408L52.8387 15.576C52.6307 15.464 52.4067 15.376 52.1667 15.312C51.9427 15.248 51.6467 15.216 51.2787 15.216C50.3827 15.216 49.6947 15.528 49.2147 16.152C48.7507 16.776 48.5187 17.592 48.5187 18.6V24H44.9187V12.24ZM61.315 22.944H61.075C60.691 23.36 60.251 23.704 59.755 23.976C59.275 24.248 58.651 24.384 57.883 24.384C57.291 24.384 56.731 24.288 56.203 24.096C55.691 23.904 55.235 23.632 54.835 23.28C54.451 22.928 54.147 22.504 53.923 22.008C53.699 21.512 53.587 20.96 53.587 20.352C53.587 19.76 53.707 19.224 53.947 18.744C54.187 18.248 54.515 17.824 54.931 17.472C55.347 17.12 55.835 16.848 56.395 16.656C56.971 16.464 57.595 16.368 58.267 16.368C58.987 16.368 59.579 16.416 60.043 16.512C60.523 16.608 60.947 16.72 61.315 16.848V16.536C61.315 16.024 61.099 15.592 60.667 15.24C60.251 14.872 59.683 14.688 58.963 14.688C57.923 14.688 57.027 15.112 56.275 15.96L53.827 14.232C54.499 13.432 55.275 12.84 56.155 12.456C57.051 12.056 58.035 11.856 59.107 11.856C61.027 11.856 62.475 12.288 63.451 13.152C64.427 14 64.915 15.296 64.915 17.04V24H61.315V22.944ZM61.315 19.368C60.947 19.224 60.579 19.112 60.211 19.032C59.859 18.952 59.491 18.912 59.107 18.912C58.467 18.912 57.987 19.048 57.667 19.32C57.347 19.576 57.187 19.912 57.187 20.328C57.187 20.744 57.339 21.08 57.643 21.336C57.947 21.576 58.347 21.696 58.843 21.696C59.243 21.696 59.595 21.632 59.899 21.504C60.219 21.36 60.483 21.176 60.691 20.952C60.899 20.728 61.051 20.48 61.147 20.208C61.259 19.92 61.315 19.64 61.315 19.368ZM75.4503 22.704H75.2103C74.9383 23.168 74.5143 23.568 73.9383 23.904C73.3783 24.224 72.6663 24.384 71.8023 24.384C71.0503 24.384 70.3303 24.232 69.6423 23.928C68.9543 23.624 68.3463 23.2 67.8183 22.656C67.3063 22.096 66.8983 21.432 66.5943 20.664C66.2903 19.896 66.1383 19.048 66.1383 18.12C66.1383 17.192 66.2903 16.344 66.5943 15.576C66.8983 14.808 67.3063 14.152 67.8183 13.608C68.3463 13.048 68.9543 12.616 69.6423 12.312C70.3303 12.008 71.0503 11.856 71.8023 11.856C72.6663 11.856 73.3783 12.024 73.9383 12.36C74.5143 12.68 74.9383 13.072 75.2103 13.536H75.4503L75.2103 11.856V6.816H78.8103V24H75.4503V22.704ZM72.5943 21.024C72.9783 21.024 73.3383 20.96 73.6743 20.832C74.0263 20.688 74.3303 20.496 74.5863 20.256C74.8583 20 75.0663 19.696 75.2103 19.344C75.3703 18.976 75.4503 18.568 75.4503 18.12C75.4503 17.672 75.3703 17.272 75.2103 16.92C75.0663 16.568 74.8583 16.264 74.5863 16.008C74.3303 15.752 74.0263 15.56 73.6743 15.432C73.3383 15.288 72.9783 15.216 72.5943 15.216C72.2103 15.216 71.8423 15.288 71.4903 15.432C71.1543 15.56 70.8503 15.752 70.5783 16.008C70.3223 16.264 70.1143 16.568 69.9543 16.92C69.8103 17.272 69.7383 17.672 69.7383 18.12C69.7383 18.568 69.8103 18.976 69.9543 19.344C70.1143 19.696 70.3223 20 70.5783 20.256C70.8503 20.496 71.1543 20.688 71.4903 20.832C71.8423 20.96 72.2103 21.024 72.5943 21.024ZM92.2844 21.144C91.7084 22.152 90.9484 22.944 90.0044 23.52C89.0764 24.096 87.9484 24.384 86.6204 24.384C85.7084 24.384 84.8604 24.232 84.0764 23.928C83.3084 23.608 82.6364 23.168 82.0604 22.608C81.4844 22.048 81.0364 21.392 80.7164 20.64C80.3964 19.872 80.2364 19.032 80.2364 18.12C80.2364 17.272 80.3964 16.472 80.7164 15.72C81.0364 14.952 81.4764 14.288 82.0364 13.728C82.6124 13.152 83.2764 12.696 84.0284 12.36C84.7964 12.024 85.6284 11.856 86.5244 11.856C87.5004 11.856 88.3564 12.016 89.0924 12.336C89.8444 12.656 90.4684 13.096 90.9644 13.656C91.4604 14.2 91.8364 14.848 92.0924 15.6C92.3484 16.336 92.4764 17.128 92.4764 17.976C92.4764 18.104 92.4684 18.232 92.4524 18.36C92.4524 18.488 92.4444 18.6 92.4284 18.696C92.4124 18.808 92.4044 18.912 92.4044 19.008H83.7404C83.9164 19.776 84.2764 20.336 84.8204 20.688C85.3644 21.04 85.9724 21.216 86.6444 21.216C87.3164 21.216 87.8684 21.072 88.3004 20.784C88.7484 20.496 89.1004 20.128 89.3564 19.68L92.2844 21.144ZM89.0924 16.56C89.0604 16.368 88.9804 16.16 88.8524 15.936C88.7404 15.712 88.5724 15.512 88.3484 15.336C88.1404 15.144 87.8764 14.992 87.5564 14.88C87.2524 14.752 86.9084 14.688 86.5244 14.688C85.9644 14.688 85.4444 14.848 84.9644 15.168C84.4844 15.488 84.1324 15.952 83.9084 16.56H89.0924ZM92.3901 25.872C92.6621 26.032 92.9581 26.112 93.2781 26.112C93.9021 26.112 94.2141 25.712 94.2141 24.912V12.24H97.8141V25.008C97.8141 25.824 97.7021 26.512 97.4781 27.072C97.2541 27.632 96.9501 28.088 96.5661 28.44C96.1981 28.792 95.7741 29.04 95.2941 29.184C94.8141 29.344 94.3101 29.424 93.7821 29.424C93.3021 29.424 92.8781 29.392 92.5101 29.328C92.1421 29.264 91.7981 29.168 91.4781 29.04L92.3901 25.872ZM96.0141 10.944C95.6941 10.944 95.3981 10.888 95.1261 10.776C94.8541 10.648 94.6141 10.488 94.4061 10.296C94.2141 10.088 94.0541 9.848 93.9261 9.576C93.8141 9.304 93.7581 9.008 93.7581 8.688C93.7581 8.384 93.8141 8.096 93.9261 7.824C94.0541 7.536 94.2141 7.296 94.4061 7.104C94.6141 6.896 94.8541 6.736 95.1261 6.624C95.3981 6.496 95.6941 6.432 96.0141 6.432C96.3181 6.432 96.6061 6.496 96.8781 6.624C97.1661 6.736 97.4061 6.896 97.5981 7.104C97.8061 7.296 97.9661 7.536 98.0781 7.824C98.2061 8.096 98.2701 8.384 98.2701 8.688C98.2701 9.008 98.2061 9.304 98.0781 9.576C97.9661 9.848 97.8061 10.088 97.5981 10.296C97.4061 10.488 97.1661 10.648 96.8781 10.776C96.6061 10.888 96.3181 10.944 96.0141 10.944ZM105.769 11.856C106.681 11.856 107.521 12.016 108.289 12.336C109.073 12.64 109.745 13.072 110.305 13.632C110.881 14.176 111.321 14.832 111.625 15.6C111.945 16.368 112.105 17.208 112.105 18.12C112.105 19.032 111.945 19.872 111.625 20.64C111.321 21.408 110.881 22.072 110.305 22.632C109.745 23.176 109.073 23.608 108.289 23.928C107.521 24.232 106.681 24.384 105.769 24.384C104.857 24.384 104.009 24.232 103.225 23.928C102.457 23.608 101.785 23.176 101.209 22.632C100.649 22.072 100.209 21.408 99.8886 20.64C99.5846 19.872 99.4326 19.032 99.4326 18.12C99.4326 17.208 99.5846 16.368 99.8886 15.6C100.209 14.832 100.649 14.176 101.209 13.632C101.785 13.072 102.457 12.64 103.225 12.336C104.009 12.016 104.857 11.856 105.769 11.856ZM105.769 21.024C106.137 21.024 106.481 20.96 106.801 20.832C107.137 20.688 107.433 20.496 107.689 20.256C107.945 20 108.145 19.696 108.289 19.344C108.433 18.976 108.505 18.568 108.505 18.12C108.505 17.672 108.433 17.272 108.289 16.92C108.145 16.568 107.945 16.264 107.689 16.008C107.433 15.752 107.137 15.56 106.801 15.432C106.481 15.288 106.137 15.216 105.769 15.216C105.401 15.216 105.049 15.288 104.713 15.432C104.393 15.56 104.105 15.752 103.849 16.008C103.593 16.264 103.393 16.568 103.249 16.92C103.105 17.272 103.033 17.672 103.033 18.12C103.033 18.568 103.105 18.976 103.249 19.344C103.393 19.696 103.593 20 103.849 20.256C104.105 20.496 104.393 20.688 104.713 20.832C105.049 20.96 105.401 21.024 105.769 21.024ZM114.585 15.264H112.521V12.24H114.585V8.64H118.185V12.24H121.089V15.264H118.185V19.224C118.185 19.48 118.217 19.72 118.281 19.944C118.345 20.152 118.457 20.328 118.617 20.472C118.857 20.68 119.169 20.784 119.553 20.784C119.809 20.784 120.025 20.752 120.201 20.688C120.377 20.624 120.529 20.544 120.657 20.448L121.665 23.568C121.249 23.76 120.801 23.912 120.321 24.024C119.841 24.136 119.329 24.192 118.785 24.192C117.521 24.192 116.521 23.824 115.785 23.088C115.401 22.704 115.105 22.232 114.897 21.672C114.689 21.096 114.585 20.464 114.585 19.776V15.264Z" fill="#263CFA"/>
<circle cx="15" cy="15" r="15" fill="#263CFA"/>
<path d="M4.49999 23.9736C4.51573 23.6715 4.84039 23.2095 4.95081 22.9972C5.9663 21.0447 7.0066 19.1118 7.99655 17.1412C9.032 15.0801 10.0276 12.8003 11.4945 11.1003C11.9736 10.5451 12.6643 9.86748 13.3446 9.6949C13.9171 9.54964 14.154 10.3794 14.3502 10.8437C14.8223 11.9612 15.3192 13.0481 15.841 14.1333C16.1572 14.791 16.1925 15.6483 16.6513 16.1984C16.995 16.6104 17.4241 17.2182 17.9344 17.3075C18.1418 17.3438 18.053 17.5479 18.319 17.3507C19.1357 16.7454 19.8379 15.8596 20.3984 14.942C20.9459 14.0456 21.2986 13.0415 21.6836 12.0441C22.2074 10.6873 22.7546 9.34764 23.3356 8.02255C23.7075 7.17422 24.2826 6.3733 24.582 5.49322" stroke="white" stroke-width="3" stroke-linecap="round"/>
</svg>
