<svg width="30" height="30" viewBox="0 0 30 30" fill="none" xmlns="http://www.w3.org/2000/svg">
<circle cx="15" cy="15" r="15" fill="#263CFA"/>
<path d="M4.49999 23.9736C4.51573 23.6715 4.84039 23.2095 4.95081 22.9972C5.9663 21.0447 7.0066 19.1118 7.99655 17.1412C9.032 15.0801 10.0276 12.8003 11.4945 11.1003C11.9736 10.5451 12.6643 9.86748 13.3446 9.6949C13.9171 9.54964 14.154 10.3794 14.3502 10.8437C14.8223 11.9612 15.3192 13.0481 15.841 14.1333C16.1572 14.791 16.1925 15.6483 16.6513 16.1984C16.995 16.6104 17.4241 17.2182 17.9344 17.3075C18.1418 17.3438 18.053 17.5479 18.319 17.3507C19.1357 16.7454 19.8379 15.8596 20.3984 14.942C20.9459 14.0456 21.2986 13.0415 21.6836 12.0441C22.2074 10.6873 22.7546 9.34764 23.3356 8.02255C23.7075 7.17422 24.2826 6.3733 24.582 5.49322" stroke="white" stroke-width="3" stroke-linecap="round"/>
</svg>
